<?xml version="1.0" encoding="UTF-8" standalone="no"?>
<!DOCTYPE svg PUBLIC "-//W3C//DTD SVG 1.1//EN" "http://www.w3.org/Graphics/SVG/1.1/DTD/svg11.dtd">
<svg width="100%" height="100%" viewBox="0 0 64 33" version="1.1" xmlns="http://www.w3.org/2000/svg" xmlns:xlink="http://www.w3.org/1999/xlink" xml:space="preserve" xmlns:serif="http://www.serif.com/" style="fill-rule:evenodd;clip-rule:evenodd;stroke-linejoin:round;stroke-miterlimit:2;">
    <g transform="matrix(1,0,0,1,-171.372,-1330.47)">
        <g transform="matrix(1,0,0,2.22163,4.36259,367.496)">
            <g transform="matrix(1.31154,0,0,0.590352,-71.9585,-135.04)">
                <path d="M192.267,966.689L188.843,966.689C188.594,966.689 188.392,966.891 188.392,967.139C188.392,967.388 188.594,967.589 188.843,967.589L196.631,967.589C196.879,967.589 197.081,967.388 197.081,967.139C197.081,966.891 196.879,966.689 196.631,966.689L193.167,966.689L193.167,963.877C193.167,963.877 218.415,963.877 218.415,963.877C218.415,963.877 218.415,982.911 218.415,982.911C218.415,982.929 218.416,982.946 218.418,982.964L207.046,982.964C206.822,980.987 205.142,979.449 203.107,979.449C203.066,979.449 203.026,979.45 202.986,979.451C202.945,979.45 202.905,979.449 202.865,979.449C200.828,979.449 199.148,980.988 198.925,982.965L198.922,982.964C198.913,982.964 198.903,982.964 198.893,982.964L192.972,982.964L192.972,977.522C192.972,977.519 192.972,977.516 192.972,977.513L194.696,977.513C194.945,977.513 195.147,977.311 195.147,977.063C195.147,976.814 194.945,976.612 194.696,976.612L186.434,976.612C186.185,976.612 185.983,976.814 185.983,977.063C185.983,977.311 186.185,977.513 186.434,977.513L192.071,977.513C192.071,977.516 192.071,977.519 192.071,977.522L192.071,983.414C192.071,983.414 192.071,983.414 192.071,983.414C192.071,983.624 192.215,983.8 192.409,983.85L192.443,983.857L192.475,983.862L192.507,983.864L192.521,983.864L198.893,983.864C198.904,983.864 198.915,983.864 198.925,983.863C199.148,985.84 200.828,987.379 202.865,987.379C202.905,987.379 202.945,987.378 202.986,987.377C203.026,987.378 203.066,987.379 203.107,987.379C205.142,987.379 206.822,985.841 207.046,983.864L220.638,983.864C220.862,985.841 222.542,987.379 224.578,987.379C226.62,987.379 228.303,985.832 228.519,983.847C228.527,983.848 228.536,983.848 228.544,983.848L230.349,983.848C230.592,983.848 230.792,983.655 230.8,983.412L230.973,978.05C230.976,977.963 230.953,977.876 230.908,977.801L225.776,969.394C225.695,969.262 225.552,969.181 225.397,969.178L219.316,969.094L219.316,963.426C219.316,963.178 219.114,962.976 218.866,962.976L192.717,962.976C192.468,962.976 192.267,963.178 192.267,963.426L192.267,966.689ZM224.578,980.35C226.269,980.35 227.642,981.723 227.642,983.414C227.642,985.105 226.269,986.478 224.578,986.478C222.887,986.478 221.514,985.105 221.514,983.414C221.514,981.723 222.887,980.35 224.578,980.35ZM202.986,980.352C204.621,980.416 205.928,981.763 205.928,983.414C205.928,985.064 204.621,986.412 202.986,986.475C201.35,986.412 200.043,985.064 200.043,983.414C200.043,981.763 201.35,980.416 202.986,980.352ZM219.316,982.911C219.316,982.928 219.315,982.946 219.313,982.963L219.313,982.964L220.638,982.964C220.862,980.987 222.542,979.449 224.578,979.449C226.609,979.449 228.285,980.979 228.515,982.948C228.525,982.947 228.534,982.947 228.544,982.947C228.544,982.947 229.913,982.947 229.913,982.947C229.913,982.947 230.069,978.156 230.069,978.156C230.069,978.156 225.136,970.076 225.136,970.076L219.316,969.995L219.316,982.911ZM201.464,973.712L189.334,973.712C189.086,973.712 188.884,973.914 188.884,974.162C188.884,974.411 189.086,974.612 189.334,974.612L201.464,974.612C201.713,974.612 201.915,974.411 201.915,974.162C201.915,973.914 201.713,973.712 201.464,973.712ZM194.784,970.723L182.654,970.723C182.406,970.723 182.204,970.925 182.204,971.174C182.204,971.422 182.406,971.624 182.654,971.624L194.784,971.624C195.033,971.624 195.235,971.422 195.235,971.174C195.235,970.925 195.033,970.723 194.784,970.723Z"/>
            </g>
        </g>
    </g>
</svg>
