<?xml version="1.0" encoding="UTF-8" standalone="no"?>
<!DOCTYPE svg PUBLIC "-//W3C//DTD SVG 1.1//EN" "http://www.w3.org/Graphics/SVG/1.1/DTD/svg11.dtd">
<svg width="100%" height="100%" viewBox="0 0 46 46" version="1.1" xmlns="http://www.w3.org/2000/svg" xmlns:xlink="http://www.w3.org/1999/xlink" xml:space="preserve" xmlns:serif="http://www.serif.com/" style="fill-rule:evenodd;clip-rule:evenodd;stroke-linecap:round;stroke-miterlimit:10;">
    <g transform="matrix(1,0,0,1,-608.099,-1324.04)">
        <g id="Artboard1" transform="matrix(1,0,0,3.08941,0,0)">
            <rect x="0" y="0" width="1440" height="900" style="fill:rgb(242,242,242);"/>
            <g transform="matrix(1,0,0,0.371323,0,-4.32342)">
                <rect x="0" y="131.527" width="1440" height="1092" style="fill:white;"/>
            </g>
            <g transform="matrix(0.868691,0,0,0.281183,103.089,160.994)">
                <g transform="matrix(1.15116,-0,-0,1.15116,581.345,951.622)">
                    <path d="M26.242,4.628L23.486,7.275L26.133,10.031" style="fill:none;stroke:black;stroke-width:0.9px;"/>
                    <path d="M23.486,7.275C31.793,7.61 38.435,14.46 38.435,22.849C38.435,31.451 31.451,38.435 22.849,38.435C14.246,38.435 7.262,31.451 7.262,22.849C7.262,19.369 8.406,16.153 10.337,13.558C11.529,11.955 13.023,10.588 14.733,9.542" style="fill:none;stroke:black;stroke-width:0.9px;stroke-linejoin:round;stroke-miterlimit:1.5;"/>
                </g>
            </g>
        </g>
    </g>
</svg>
