<?xml version="1.0" encoding="UTF-8" standalone="no"?>
<!DOCTYPE svg PUBLIC "-//W3C//DTD SVG 1.1//EN" "http://www.w3.org/Graphics/SVG/1.1/DTD/svg11.dtd">
<svg width="100%" height="100%" viewBox="0 0 40 35" version="1.1" xmlns="http://www.w3.org/2000/svg" xmlns:xlink="http://www.w3.org/1999/xlink" xml:space="preserve" xmlns:serif="http://www.serif.com/" style="fill-rule:evenodd;clip-rule:evenodd;stroke-linejoin:round;stroke-miterlimit:2;">
    <g transform="matrix(1,0,0,1,-1042.34,-1332.26)">
        <g transform="matrix(1,0,0,3.08941,0,0)">
            <g transform="matrix(0.388183,0,0,0.125649,638.934,279.153)">
                <path d="M1039.34,1262.61C1039.25,1262.25 1039.23,1261.9 1039.23,1261.72C1039.23,1233.66 1061.78,1210.82 1089.74,1210.37L1089.74,1210.37L1089.78,1210.37L1089.82,1210.37L1089.82,1210.37C1117.78,1210.82 1140.33,1233.66 1140.33,1261.72C1140.33,1261.9 1140.31,1262.25 1140.22,1262.61C1140.27,1263.01 1140.29,1263.42 1140.29,1263.84L1140.29,1288.39C1140.29,1294.55 1135.29,1299.54 1129.14,1299.54C1129.14,1299.54 1119.14,1299.54 1119.14,1299.54C1117.9,1299.54 1116.89,1298.53 1116.89,1297.28L1116.89,1254.95C1116.89,1253.7 1117.9,1252.69 1119.14,1252.69L1129.14,1252.69C1131.4,1252.69 1133.51,1253.37 1135.27,1254.53C1131.85,1232.34 1112.83,1215.27 1089.78,1214.88C1066.74,1215.27 1047.71,1232.34 1044.29,1254.53C1046.05,1253.37 1048.16,1252.69 1050.42,1252.69L1060.42,1252.69C1061.66,1252.69 1062.67,1253.7 1062.67,1254.95L1062.67,1297.28C1062.67,1298.53 1061.66,1299.54 1060.42,1299.54C1060.42,1299.54 1050.42,1299.54 1050.42,1299.54C1044.27,1299.54 1039.27,1294.55 1039.27,1288.39L1039.27,1263.84C1039.27,1263.42 1039.3,1263.01 1039.34,1262.61ZM1058.16,1257.2L1058.16,1295.03C1058.16,1295.03 1050.42,1295.03 1050.42,1295.03C1046.76,1295.03 1043.79,1292.06 1043.79,1288.39C1043.79,1288.39 1043.79,1263.84 1043.79,1263.84C1043.79,1260.18 1046.76,1257.2 1050.42,1257.2L1058.16,1257.2ZM1121.4,1257.2L1121.4,1295.03C1121.4,1295.03 1129.14,1295.03 1129.14,1295.03C1132.8,1295.03 1135.78,1292.06 1135.78,1288.39C1135.78,1288.39 1135.78,1263.84 1135.78,1263.84C1135.78,1260.18 1132.8,1257.2 1129.14,1257.2L1121.4,1257.2Z"/>
            </g>
        </g>
    </g>
</svg>
